# xmcd
#
# Track frame offsets:
#	182
#	19600
#	35925
#	50137
#	68800
#	84400
#	98350
#	112525
#	121182
#	134550
#	143850
#	151837
#	162437
#	176100
#	191182
#	202725
#	213637
#	225375
#	240375
#	252000
#
# Disc length: 3520 seconds
#
# Revision: 1
# Processed by: cddbd v1.4b42PL1 Copyright (c) Steve Scherf et al.
# Submitted via: audiograbber 1.80.04
#
DISCID=0a0dbe14
DTITLE=Rita Hayworth - Divas - The Gold Collection - Disc 2
DYEAR=1900
DGENRE=
TTITLE0=On the gay white way
TTITLE1=Come tell me what's your answer
TTITLE2=Here you are
TTITLE3=Sure thing
TTITLE4=Poor John
TTITLE5=What does an english girl think of a yank?
TTITLE6=You excite me
TTITLE7=Put the blame on mame (slow version)
TTITLE8=Amado mio
TTITLE9=Put the blame on mame (club version)
TTITLE10=Let's stay young forever
TTITLE11=They cannot convince me 
TTITLE12=Trinidad lady
TTITLE13=I've been kissed before
TTITLE14=Blue pacific blues
TTITLE15=The heat is on
TTITLE16=Zip
TTITLE17=My funny valentine
TTITLE18=Mutual admiration
TTITLE19=I'm old fashioned
EXTD=
EXTT0=
EXTT1=
EXTT2=
EXTT3=
EXTT4=
EXTT5=
EXTT6=
EXTT7=
EXTT8=
EXTT9=
EXTT10=
EXTT11=
EXTT12=
EXTT13=
EXTT14=
EXTT15=
EXTT16=
EXTT17=
EXTT18=
EXTT19=
PLAYORDER=
